<?xml version="1.0" encoding="utf-8"?>
<!-- Generator: Adobe Illustrator 16.0.0, SVG Export Plug-In . SVG Version: 6.00 Build 0)  -->
<!DOCTYPE svg PUBLIC "-//W3C//DTD SVG 1.1//EN" "http://www.w3.org/Graphics/SVG/1.1/DTD/svg11.dtd">
<svg version="1.1" id="Layer_1" xmlns="http://www.w3.org/2000/svg" xmlns:xlink="http://www.w3.org/1999/xlink" x="0px" y="0px"
	 width="94px" height="94px" viewBox="0 0 94 94" enable-background="new 0 0 94 94" xml:space="preserve">
<circle fill="#F3F3F3" cx="47" cy="47" r="47"/>
<g opacity="0.7">
	<path d="M47.531,42.241c1.871-2.03,3.69-4.11,5.631-6.071c0.827-0.832,0.933-1.458,0.319-2.468
		c-1.396-2.314-2.665-4.706-3.955-7.012c0.519-0.642,0.88-0.206,1.227-0.066c0.562,0.221,1.09,0.526,1.65,0.753
		c2.116,0.843,4.262,2.967,6.21,2.462c1.82-0.476,3.081-3.022,4.642-4.604c0.698-0.705,1.23-1.613,2.481-2.242
		c-0.338,2.981-0.549,5.728-1.004,8.433c-0.219,1.304,0.204,1.82,1.314,2.296c2.482,1.061,4.907,2.25,7.734,3.56
		c-2.436,0.943-4.59,1.133-6.685,1.56c-3.291,0.67-3.29,0.654-3.69,3.958c-0.258,2.126-0.534,4.253-1.246,6.477
		c-1.34-2.396-2.73-4.762-3.994-7.197c-0.544-1.045-1.128-1.293-2.281-1.024c-2.674,0.63-5.389,1.079-8.087,1.603
		C47.707,42.518,47.619,42.379,47.531,42.241L47.531,42.241z"/>
	<path d="M59.781,61.224c-9.969,5.577-22.572,2.016-28.149-7.953c-5.577-9.97-2.015-22.573,7.955-28.15
		c0.282-0.157,0.568-0.308,0.855-0.451c-2.838,0.377-5.658,1.276-8.31,2.761c-11.216,6.273-15.221,20.449-8.948,31.665
		c6.273,11.214,20.45,15.223,31.666,8.947c4.456-2.491,7.767-6.232,9.753-10.54C63.224,58.938,61.61,60.2,59.781,61.224
		L59.781,61.224z"/>
</g>
</svg>
