<?xml version="1.0" encoding="utf-8"?>
<!-- Generator: Adobe Illustrator 16.0.0, SVG Export Plug-In . SVG Version: 6.00 Build 0)  -->
<!DOCTYPE svg PUBLIC "-//W3C//DTD SVG 1.1//EN" "http://www.w3.org/Graphics/SVG/1.1/DTD/svg11.dtd">
<svg version="1.1" id="Layer_1" xmlns="http://www.w3.org/2000/svg" xmlns:xlink="http://www.w3.org/1999/xlink" x="0px" y="0px"
	 width="150px" height="150px" viewBox="0 0 150 150" enable-background="new 0 0 150 150" xml:space="preserve">
<g opacity="0.7">
	<path fill="#FFFFFF" d="M75.881,66.302c4.969-5.391,9.799-10.913,14.951-16.12c2.195-2.21,2.475-3.874,0.85-6.555
		c-3.709-6.145-7.078-12.496-10.502-18.618c1.375-1.704,2.334-0.547,3.256-0.177c1.488,0.587,2.892,1.398,4.381,2
		c5.619,2.24,11.317,7.879,16.488,6.536c4.834-1.264,8.184-8.023,12.327-12.225c1.853-1.873,3.267-4.283,6.589-5.955
		c-0.897,7.919-1.459,15.211-2.666,22.394c-0.582,3.464,0.541,4.835,3.491,6.099c6.591,2.814,13.029,5.973,20.535,9.451
		c-6.466,2.504-12.187,3.009-17.749,4.141c-8.74,1.779-8.736,1.736-9.8,10.51c-0.683,5.648-1.417,11.294-3.308,17.201
		c-3.558-6.361-7.25-12.646-10.607-19.112c-1.443-2.774-2.993-3.435-6.057-2.718c-7.097,1.671-14.309,2.866-21.474,4.254
		C76.348,67.037,76.113,66.67,75.881,66.302L75.881,66.302z"/>
	<path fill="#FFFFFF" d="M108.407,116.707c-26.47,14.809-59.937,5.352-74.745-21.12c-14.808-26.473-5.349-59.938,21.122-74.746
		c0.748-0.418,1.508-0.816,2.271-1.197c-7.54,0.999-15.024,3.389-22.066,7.329C5.208,43.631-5.427,81.271,11.23,111.053
		c16.657,29.777,54.3,40.42,84.081,23.76c11.834-6.617,20.625-16.551,25.899-27.989
		C117.548,110.639,113.266,113.989,108.407,116.707L108.407,116.707z"/>
</g>
</svg>
