<?xml version="1.0" encoding="utf-8"?>
<!-- Generator: Adobe Illustrator 16.0.0, SVG Export Plug-In . SVG Version: 6.00 Build 0)  -->
<!DOCTYPE svg PUBLIC "-//W3C//DTD SVG 1.1//EN" "http://www.w3.org/Graphics/SVG/1.1/DTD/svg11.dtd">
<svg version="1.1" id="Layer_1" xmlns="http://www.w3.org/2000/svg" xmlns:xlink="http://www.w3.org/1999/xlink" x="0px" y="0px"
	 width="94px" height="94px" viewBox="0 0 94 94" enable-background="new 0 0 94 94" xml:space="preserve">
<circle fill="#F3F3F3" cx="47" cy="47" r="47"/>
<g opacity="0.7">
	<path d="M35.35,53.037h-1.987l-7.071-11.358l-0.061,0.02v11.338h-1.987V38.351h1.987l7.071,11.338l0.061-0.021V38.351h1.987V53.037
		z"/>
	<path d="M38.144,47.479c0-1.614,0.437-2.943,1.312-3.989c0.874-1.045,2.061-1.568,3.561-1.568c1.513,0,2.708,0.521,3.586,1.563
		c0.877,1.042,1.316,2.374,1.316,3.994v0.222c0,1.628-0.437,2.959-1.311,3.994c-0.874,1.036-2.064,1.554-3.571,1.554
		c-1.506,0-2.698-0.52-3.575-1.559c-0.878-1.039-1.316-2.368-1.316-3.989V47.479z M40.131,47.696c0,1.155,0.243,2.109,0.731,2.861
		c0.487,0.752,1.212,1.128,2.173,1.128c0.948,0,1.668-0.376,2.159-1.128c0.49-0.752,0.736-1.706,0.736-2.861v-0.222
		c0-1.142-0.247-2.092-0.741-2.851c-0.494-0.759-1.219-1.138-2.174-1.138c-0.948,0-1.666,0.379-2.153,1.138
		c-0.488,0.759-0.731,1.709-0.731,2.851V47.696z"/>
	<path d="M52.124,42.123l0.142,1.624c0.362-0.578,0.818-1.027,1.366-1.347s1.172-0.479,1.871-0.479c1.177,0,2.088,0.345,2.733,1.034
		c0.646,0.689,0.969,1.754,0.969,3.193v6.889h-1.987v-6.849c0-0.961-0.19-1.644-0.569-2.047c-0.381-0.404-0.961-0.605-1.74-0.605
		c-0.572,0-1.078,0.138-1.519,0.414c-0.44,0.276-0.792,0.652-1.054,1.13v7.958h-1.987V42.123H52.124z"/>
	<path d="M66.619,53.249c-1.521,0-2.729-0.506-3.627-1.518c-0.897-1.013-1.346-2.325-1.346-3.939v-0.444
		c0-1.553,0.462-2.846,1.387-3.878s2.019-1.548,3.283-1.548c1.473,0,2.586,0.444,3.339,1.332s1.13,2.071,1.13,3.55v1.241h-7.081
		l-0.03,0.051c0.02,1.046,0.285,1.906,0.797,2.58c0.511,0.674,1.227,1.011,2.148,1.011c0.672,0,1.263-0.096,1.771-0.287
		c0.507-0.191,0.946-0.456,1.315-0.792l0.777,1.293c-0.391,0.386-0.904,0.707-1.544,0.964C68.3,53.12,67.526,53.249,66.619,53.249z
		 M66.316,43.485c-0.666,0-1.234,0.28-1.705,0.839s-0.76,1.262-0.867,2.106l0.021,0.05h5.033v-0.261c0-0.777-0.209-1.428-0.626-1.95
		C67.755,43.746,67.137,43.485,66.316,43.485z"/>
</g>
</svg>
