<?xml version="1.0" encoding="utf-8"?>
<!-- Generator: Adobe Illustrator 16.0.0, SVG Export Plug-In . SVG Version: 6.00 Build 0)  -->
<!DOCTYPE svg PUBLIC "-//W3C//DTD SVG 1.1//EN" "http://www.w3.org/Graphics/SVG/1.1/DTD/svg11.dtd">
<svg version="1.1" id="Layer_1" xmlns="http://www.w3.org/2000/svg" xmlns:xlink="http://www.w3.org/1999/xlink" x="0px" y="0px"
	 width="94px" height="94px" viewBox="0 0 94 94" enable-background="new 0 0 94 94" xml:space="preserve">
<circle fill="#F3F3F3" cx="47" cy="47" r="47"/>
<g opacity="0.7">
	<path d="M48.43,34.166c0,0,3.016,2.412,7.497,2.412c4.557,0,9.655-2.29,13.308-5.974c0.131-0.133,0.164-0.334,0.083-0.502
		c-0.729-1.5-2.828-3.854-4.237-4.751c-0.198-0.125-0.456-0.076-0.593,0.112c-2.375,3.256-5.979,5.123-9.889,5.123
		c-4.414,0-8.486-2.282-10.896-6.105c-0.109-0.173-0.323-0.248-0.516-0.181c-0.192,0.067-0.314,0.257-0.294,0.46
		C43.27,28.415,45.382,31.943,48.43,34.166z"/>
	<path d="M67.439,39.065c-1.736-0.955-3.397-1.438-4.939-1.438c-4.484,0-7.371,3.91-10.162,7.691
		c-2.504,3.392-4.868,6.597-8.113,6.597c-0.001,0-0.001,0-0.002,0c-1.235,0-2.537-0.453-3.962-1.383
		c4.955-3.02,7.245-7.26,6.143-11.45c-1.193-4.538-5.962-7.706-11.596-7.706c-1.827,0-3.694,0.328-5.55,0.973
		c-0.141,0.049-0.248,0.167-0.283,0.312l-2.146,8.932c-0.041,0.169,0.023,0.348,0.163,0.453c0.139,0.105,0.328,0.119,0.48,0.033
		c4.208-2.345,7.272-2.837,9.102-2.837c3.3,0,4.802,1.491,4.802,2.877c0,2.146-3.24,4.316-9.433,4.387c0,0-1.056-0.119-1.064,0.414
		c-0.002,0.206,0.653,2.475,1.197,4.092c1.29,3.834,1.895,4.156,2.361,4.156c0.056,0,0.112-0.008,0.167-0.023
		c1-0.27,2.061-0.412,3.071-0.412c1.793,0,6.065,0.482,7.028,4.957c0.442,2.053,0.072,3.828-1.097,5.275
		c-2.188,2.707-6.605,3.668-9.723,3.668c-6.907,0-11.427-4.51-14.226-14.191c-0.063-0.215-0.278-0.352-0.498-0.311
		c-0.221,0.039-0.378,0.236-0.363,0.461c0.418,6.5,2.494,11.785,6.002,15.283c2.993,2.98,6.984,4.625,11.242,4.625
		c5.51,0,10.461-2.711,12.611-6.906c1.943-3.787,1.385-8.324-1.554-12.871c0.797,0.152,1.557,0.23,2.269,0.23
		c4.622,0,6.917-3.1,9.346-6.379c1.333-1.801,2.712-3.665,4.553-5.113c0.514-0.403,0.991-0.607,1.418-0.607
		c1.836,0,3.224,4.123,3.225,9.589c0.001,6.672-1.985,13.424-5.787,13.426c0,0-0.001,0-0.003,0c-2.342,0-5.285-2.543-8.512-7.354
		c-0.102-0.152-0.284-0.227-0.463-0.186c-0.177,0.041-0.312,0.186-0.337,0.365c-0.535,3.639,0.381,7.141,2.512,9.607
		c1.842,2.133,4.384,3.307,7.158,3.307c0,0,0.001,0,0.002,0c1.724,0,3.458-0.451,5.152-1.346c4.61-2.424,7.514-8.184,7.577-15.029
		C75.271,48.041,72.224,41.695,67.439,39.065z"/>
	<circle cx="54.329" cy="23.965" r="4.466"/>
</g>
</svg>
