<?xml version="1.0" encoding="utf-8"?>
<!-- Generator: Adobe Illustrator 16.0.0, SVG Export Plug-In . SVG Version: 6.00 Build 0)  -->
<!DOCTYPE svg PUBLIC "-//W3C//DTD SVG 1.1//EN" "http://www.w3.org/Graphics/SVG/1.1/DTD/svg11.dtd">
<svg version="1.1" id="Capa_1" xmlns="http://www.w3.org/2000/svg" xmlns:xlink="http://www.w3.org/1999/xlink" x="0px" y="0px"
	 width="512px" height="512px" viewBox="0 0 512 512" enable-background="new 0 0 512 512" xml:space="preserve">
<g opacity="0.7">
	<path fill="#FFFFFF" d="M268.641,142.495c0,0,26.67,21.335,66.306,21.335c40.284,0,85.374-20.246,117.677-52.835
		c1.164-1.172,1.458-2.95,0.737-4.437c-6.444-13.271-25.013-34.083-37.485-42.02c-1.732-1.1-4.021-0.667-5.229,0.991
		c-21.003,28.792-52.875,45.304-87.449,45.306c-39.028,0.003-75.049-20.182-96.357-53.992c-0.964-1.529-2.854-2.188-4.559-1.603
		c-1.708,0.592-2.785,2.279-2.6,4.074C223.007,91.645,241.694,122.851,268.641,142.495z"/>
	<path fill="#FFFFFF" d="M436.756,185.831c-15.354-8.442-30.048-12.722-43.676-12.722c-39.664,0-65.188,34.581-89.871,68.024
		c-22.143,29.998-43.055,58.333-71.749,58.342c-0.005,0-0.01,0-0.014,0c-10.927,0-22.436-4.012-35.046-12.24
		c43.814-26.693,64.073-64.202,54.327-101.243c-10.556-40.124-52.723-68.146-102.541-68.146c-16.161,0-32.673,2.894-49.08,8.601
		c-1.25,0.436-2.193,1.478-2.503,2.764l-18.978,78.98c-0.36,1.501,0.201,3.074,1.431,4.007c1.231,0.934,2.896,1.052,4.244,0.297
		c37.215-20.738,64.311-25.09,80.487-25.09c29.177,0,42.466,13.186,42.467,25.44c0.001,18.976-28.651,38.172-83.416,38.792
		c0,0-9.337-1.054-9.41,3.662c-0.028,1.82,5.777,21.897,10.581,36.183c11.404,33.912,16.758,36.752,20.882,36.752
		c0.496,0,0.991-0.064,1.471-0.193c8.833-2.385,18.224-3.646,27.16-3.646c15.852,0,53.638,4.271,62.15,43.828
		c3.906,18.15,0.642,33.848-9.696,46.646c-19.343,23.949-58.409,32.445-85.984,32.445c-61.078,0.002-101.052-39.877-125.801-125.5
		c-0.55-1.905-2.457-3.094-4.404-2.75c-1.955,0.342-3.34,2.102-3.212,4.082c3.696,57.479,22.052,104.214,53.081,135.147
		c26.458,26.379,61.761,40.906,99.408,40.906c48.729,0,92.508-23.972,111.532-61.068c17.176-33.492,12.242-73.612-13.76-113.819
		c7.061,1.34,13.783,2.02,20.078,2.02c40.871,0,61.162-27.398,82.643-56.405c11.795-15.926,23.99-32.394,40.263-45.2
		c4.536-3.572,8.753-5.382,12.534-5.382c16.243,0,28.503,36.461,28.518,84.807c0.016,58.986-17.557,118.706-51.172,118.726
		c-0.005,0-0.01,0-0.018,0c-20.718,0-46.751-22.49-75.284-65.043c-0.896-1.336-2.516-1.983-4.089-1.629
		c-1.566,0.354-2.756,1.638-2.988,3.229c-4.723,32.182,3.375,63.146,22.216,84.955c16.29,18.856,38.77,29.244,63.299,29.246
		c0.003,0,0.008,0,0.011,0c15.247,0,30.583-3.997,45.577-11.887c40.771-21.443,66.444-72.382,67.003-132.936
		C506.012,265.213,479.058,209.086,436.756,185.831z"/>
	<circle fill="#FFFFFF" cx="320.813" cy="52.295" r="39.497"/>
</g>
</svg>
