<?xml version="1.0" encoding="utf-8"?>
<!-- Generator: Adobe Illustrator 16.0.0, SVG Export Plug-In . SVG Version: 6.00 Build 0)  -->
<!DOCTYPE svg PUBLIC "-//W3C//DTD SVG 1.1//EN" "http://www.w3.org/Graphics/SVG/1.1/DTD/svg11.dtd">
<svg version="1.1" id="Layer_1" xmlns="http://www.w3.org/2000/svg" xmlns:xlink="http://www.w3.org/1999/xlink" x="0px" y="0px"
	 width="94px" height="94px" viewBox="28 28 94 94" enable-background="new 28 28 94 94" xml:space="preserve">
<circle fill="#F3F3F3" cx="75" cy="75" r="47"/>
<path opacity="0.7" enable-background="new    " d="M50.859,66.994c-0.01-1.395,0.31-2.977,1.263-3.768
	c1.639-1.359,3.13-0.228,3.639,1.297c0.378,1.128,0.407,2.382,0.163,3.571c-0.326,1.55-1.099,2.969-2.224,4.087
	c-0.194,0.188-0.357,0.235-0.601,0.042C51.119,70.664,50.863,67.701,50.859,66.994z M93.103,62.542H70.421v5.434
	c0,0,15.252,0,15.661,0c1.046,0,1.118,0.738,0.742,1.469c-0.786,1.533-1.858,2.898-3.16,4.021c-1.411,1.215-1.441,1.21-3.281,1.21
	c-0.966,0-4.95,0-4.95,0v3.909c0,0,2.304,0,4.185,0c1.301,0,2.262,0.038,3.14,0.348c4.156,1.462,5.296,6.4,3.755,10.01
	c-2.074,4.851-6.534,5.551-10.92,3.455c-9.549-4.563-11.105-20.742-7.652-28.709c1.87-4.314,5.22-7.207,9.252-7.595
	c2.833-0.159,5.638,0.644,7.959,2.276c0.009-0.009,0.02-0.017,0.027-0.026c2.988-2.716,7.099-3.838,11.053-3.022
	c0.011,0.003,0.024,0.005,0.034,0.008c0,0,0,0,0.013-0.005c1.898-1.062,3.898-1.932,5.969-2.595
	c0.939-0.284,0.612-1.369-0.447-1.384c-1.462-0.051-3.321,0.186-4.689,0.697c-4.583-1.276-9.098-0.267-12.806,2.715
	c-0.013-0.009-0.024-0.018-0.038-0.027c-1.325-2.17-4.073-3.498-7.151-3.188c-1.916,0.193-3.566,0.827-4.982,1.784
	c-7.149,4.833-8.404,17.733-7.341,25.292c1.189,8.433,5.459,17.978,14.644,19.785c3.429,0.675,7.035,0.034,10.057-1.879
	c0.092-0.075,0.183-0.151,0.271-0.228c5.3-4.608,5.359-13.39,1.203-18.74c-0.6-0.769-1.283-1.481-2.04-2.118l0,0
	c2.815-3.221,4.611-7.204,5.16-11.446C94.087,63.996,94.199,62.542,93.103,62.542z M54.15,97.201l1.143,0.589l1.205,0.62
	c0.762,0.393,1.674-0.134,1.712-0.99c0,0,0.002-0.054,0.01-0.217c0.149-3.276-1.18-5.427-2.725-8.194
	c-0.131-0.232-0.261-0.467-0.387-0.701c-0.829-1.528-1.583-3.133-1.772-4.888c-0.008-0.083-0.016-0.165-0.023-0.247
	c1.338-1.485,2.614-3.269,3.927-5.025c1.537-1.603,2.643-3.568,3.21-5.714c0.494-1.949,0.675-4.269,0.353-6.412
	c-0.765-5.09-5.067-8.545-10.372-6.203c-2.997,1.324-4,4.862-2.631,8.872c0.479,1.401,1.281,2.705,2.384,3.789
	c0.564,0.687,1.192,1.325,1.881,1.904c0.029,0.03,0.06,0.06,0.091,0.09c0,0-1.518,1.724-2.693,3.061L47.89,79.32l2.096,3.226
	c0.075,0.112,0.149,0.226,0.224,0.338c2.381,3.593,6.171,8.976,4.237,13.604C54.309,96.817,54.15,97.201,54.15,97.201z"/>
</svg>
