<?xml version="1.0" encoding="utf-8"?>
<!-- Generator: Adobe Illustrator 16.0.0, SVG Export Plug-In . SVG Version: 6.00 Build 0)  -->
<!DOCTYPE svg PUBLIC "-//W3C//DTD SVG 1.1//EN" "http://www.w3.org/Graphics/SVG/1.1/DTD/svg11.dtd">
<svg version="1.1" id="Capa_1" xmlns="http://www.w3.org/2000/svg" xmlns:xlink="http://www.w3.org/1999/xlink" x="0px" y="0px"
	 width="512px" height="512px" viewBox="0 0 512 512" enable-background="new 0 0 512 512" xml:space="preserve">
<g>
	<path d="M489.836,233.836H75.668l98.826-98.833c8.658-8.653,8.658-22.689,0-31.341c-8.658-8.658-22.694-8.658-31.339,0
		L6.493,240.327c-8.658,8.653-8.658,22.691,0,31.34l136.662,136.671c4.328,4.33,9.999,6.492,15.669,6.492s11.342-2.162,15.669-6.492
		c8.658-8.653,8.658-22.689,0-31.34L75.668,278.16h414.168c12.239,0,22.164-9.924,22.164-22.163
		C512,243.758,502.076,233.836,489.836,233.836z"/>
</g>
</svg>
