<?xml version="1.0" encoding="utf-8"?>
<!-- Generator: Adobe Illustrator 16.0.0, SVG Export Plug-In . SVG Version: 6.00 Build 0)  -->
<!DOCTYPE svg PUBLIC "-//W3C//DTD SVG 1.1//EN" "http://www.w3.org/Graphics/SVG/1.1/DTD/svg11.dtd">
<svg version="1.1" id="Capa_1" xmlns="http://www.w3.org/2000/svg" xmlns:xlink="http://www.w3.org/1999/xlink" x="0px" y="0px"
	 width="512px" height="512px" viewBox="0 0 512 512" enable-background="new 0 0 512 512" xml:space="preserve">
<g>
	<g>
		<path d="M417.457,21.03H94.544C42.413,21.03,0,63.439,0,115.573v196.601c0,52.135,42.413,94.546,94.544,94.546h222.918
			l80.57,80.559c2.409,2.414,5.634,3.691,8.915,3.691c1.621,0,3.263-0.31,4.819-0.957c4.712-1.947,7.783-6.551,7.783-11.646v-71.672
			c51.168-1.12,92.45-43.09,92.45-94.521v-196.6C512,63.439,469.589,21.03,417.457,21.03z M486.789,312.173
			c0,38.226-31.102,69.333-69.334,69.333H406.94c-6.962,0-12.604,5.639-12.604,12.605v53.824l-62.743-62.737
			c-2.362-2.362-5.569-3.692-8.911-3.692H94.544c-38.229,0-69.333-31.107-69.333-69.333V115.574
			c0-38.235,31.104-69.333,69.333-69.333h322.912c38.23,0,69.334,31.097,69.334,69.333L486.789,312.173L486.789,312.173z"/>
		<path d="M137.817,186.434c-15.665,0-28.362,12.704-28.362,28.364c0,15.671,12.697,28.364,28.362,28.364
			c15.658,0,28.364-12.694,28.364-28.364C166.181,199.138,153.475,186.434,137.817,186.434z"/>
		<path d="M255.998,186.434c-15.665,0-28.363,12.704-28.363,28.364c0,15.671,12.698,28.364,28.363,28.364
			c15.658,0,28.363-12.694,28.363-28.364C284.361,199.138,271.656,186.434,255.998,186.434z"/>
		<path d="M374.181,186.434c-15.665,0-28.365,12.704-28.365,28.364c0,15.671,12.7,28.364,28.365,28.364
			c15.658,0,28.36-12.694,28.36-28.364C402.541,199.138,389.839,186.434,374.181,186.434z"/>
	</g>
</g>
</svg>
