<?xml version="1.0" encoding="utf-8"?>
<!-- Generator: Adobe Illustrator 16.0.0, SVG Export Plug-In . SVG Version: 6.00 Build 0)  -->
<!DOCTYPE svg PUBLIC "-//W3C//DTD SVG 1.1//EN" "http://www.w3.org/Graphics/SVG/1.1/DTD/svg11.dtd">
<svg version="1.1" id="Capa_1" xmlns="http://www.w3.org/2000/svg" xmlns:xlink="http://www.w3.org/1999/xlink" x="0px" y="0px"
	 width="512px" height="512px" viewBox="0 0 512 512" enable-background="new 0 0 512 512" xml:space="preserve">
<g id="no_1_">
	<g>
		<path d="M256,0C114.611,0,0,114.611,0,256s114.611,256,256,256s256-114.611,256-256S397.389,0,256,0z M51.2,256
			c0-112.921,91.878-204.8,204.8-204.8c47.244,0,90.688,16.243,125.376,43.226l-286.95,286.95C67.443,346.688,51.2,303.244,51.2,256
			z M256,460.8c-47.245,0-90.688-16.243-125.376-43.226l286.963-286.963C444.557,165.312,460.8,208.755,460.8,256
			C460.8,368.935,368.935,460.8,256,460.8z"/>
	</g>
</g>
</svg>
