<?xml version="1.0" encoding="utf-8"?>
<!-- Generator: Adobe Illustrator 16.0.0, SVG Export Plug-In . SVG Version: 6.00 Build 0)  -->
<!DOCTYPE svg PUBLIC "-//W3C//DTD SVG 1.1//EN" "http://www.w3.org/Graphics/SVG/1.1/DTD/svg11.dtd">
<svg version="1.1" id="Capa_1" xmlns="http://www.w3.org/2000/svg" xmlns:xlink="http://www.w3.org/1999/xlink" x="0px" y="0px"
	 width="512px" height="512px" viewBox="0 0 512 512" enable-background="new 0 0 512 512" xml:space="preserve">
<g>
	<path fill="#FFFFFF" d="M434.87,326.298v116.958H77.112V326.298H8.352v151.339C8.352,496.611,23.723,512,42.783,512h426.416
		c19.044,0,34.432-15.371,34.432-34.363V326.298H434.87z"/>
	<path fill="#FFFFFF" d="M249.698,314.701l-98.444-118.957c0,0-14.979-14.142,1.264-14.142s55.473,0,55.473,0s0-9.513,0-24.184
		c0-41.827,0-117.949,0-148.982c0,0-2.203-8.437,10.504-8.437c12.81,0,68.914,0,78.086,0c9.154,0,8.949,7.105,8.949,7.105
		c0,30.093,0,108.846,0,149.306c0,13.117,0,21.623,0,21.623s31.46,0,51.204,0c19.709,0,4.867,14.808,4.867,14.808
		s-83.757,111.186-95.438,122.85C257.76,324.146,249.698,314.701,249.698,314.701z"/>
</g>
</svg>
