<?xml version="1.0" encoding="utf-8"?>
<!-- Generator: Adobe Illustrator 16.0.0, SVG Export Plug-In . SVG Version: 6.00 Build 0)  -->
<!DOCTYPE svg PUBLIC "-//W3C//DTD SVG 1.1//EN" "http://www.w3.org/Graphics/SVG/1.1/DTD/svg11.dtd">
<svg version="1.1" id="Capa_1" xmlns="http://www.w3.org/2000/svg" xmlns:xlink="http://www.w3.org/1999/xlink" x="0px" y="0px"
	 width="74px" height="74px" viewBox="219 219 74 74" enable-background="new 219 219 74 74" xml:space="preserve">
<g>
	<g>
		<path fill="#767475" d="M292.813,256.083l-0.515-0.777l-9.599-9.601c-0.937-0.936-2.463-0.936-3.396,0
			c-0.936,0.937-0.936,2.458,0,3.395l5.503,5.5H259.4v-25.407l5.501,5.501c0.93,0.936,2.457,0.936,3.393,0
			c0.933-0.936,0.933-2.458,0-3.394l-9.601-9.6l-0.021-0.014l-0.756-0.499L256.999,221h-0.009l-0.907,0.188l-0.754,0.499
			l-0.028,0.014l-9.601,9.6c-0.936,0.936-0.936,2.458,0,3.394s2.458,0.936,3.394,0l5.505-5.501V254.6h-25.407l5.501-5.5
			c0.936-0.937,0.936-2.458,0-3.395c-0.936-0.936-2.458-0.936-3.394,0l-9.6,9.601l-0.015,0.024l-0.499,0.753L221,257.001v0.009
			l0.187,0.906l0.499,0.749l0.015,0.03l9.6,9.599c0.936,0.937,2.458,0.937,3.394,0c0.936-0.93,0.936-2.457,0-3.393l-5.501-5.501
			H254.6v25.407l-5.5-5.503c-0.937-0.93-2.458-0.93-3.395,0c-0.936,0.937-0.936,2.464,0,3.396l9.601,9.599l0.777,0.519L256.99,293
			h0.011l0.915-0.187l0.779-0.515l9.599-9.599c0.933-0.937,0.933-2.463,0-3.396c-0.936-0.936-2.461-0.936-3.393,0l-5.501,5.503
			V259.4h25.407l-5.503,5.501c-0.93,0.932-0.93,2.457,0,3.393c0.937,0.933,2.464,0.933,3.396,0l9.599-9.601l0.519-0.777L293,257.01
			v-0.009L292.813,256.083z"/>
	</g>
</g>
</svg>
