<?xml version="1.0" encoding="utf-8"?>
<!-- Generator: Adobe Illustrator 16.0.0, SVG Export Plug-In . SVG Version: 6.00 Build 0)  -->
<!DOCTYPE svg PUBLIC "-//W3C//DTD SVG 1.1//EN" "http://www.w3.org/Graphics/SVG/1.1/DTD/svg11.dtd">
<svg version="1.1" id="Capa_1" xmlns="http://www.w3.org/2000/svg" xmlns:xlink="http://www.w3.org/1999/xlink" x="0px" y="0px"
	 width="345.002px" height="345.002px" viewBox="0 0 345.002 345.002" enable-background="new 0 0 345.002 345.002"
	 xml:space="preserve">
<g>
	<path fill="#FFFFFF" d="M341.34,90.612l-43.452-43.453c-0.008-0.007-0.014-0.016-0.02-0.023c-0.008-0.007-0.02-0.014-0.023-0.021
		L254.392,3.661C252.048,1.317,248.869,0,245.554,0c-3.316,0-6.494,1.317-8.84,3.661L26.285,214.088
		c-1.727,1.728-2.909,3.92-3.404,6.312L0.259,329.976c-0.851,4.119,0.429,8.393,3.403,11.365c2.368,2.368,5.558,3.661,8.839,3.661
		c0.841,0,1.688-0.085,2.527-0.258l109.57-22.625c2.392-0.494,4.585-1.677,6.312-3.403l210.43-210.427
		C346.222,103.409,346.222,95.494,341.34,90.612z M42.677,248.161l54.164,54.164l-68.256,14.093L42.677,248.161z M122.071,292.2
		L52.8,222.929l192.754-192.75l25.795,25.797l-116.637,116.64c-4.882,4.882-4.882,12.796,0,17.678
		c2.44,2.439,5.64,3.661,8.839,3.661c3.199,0,6.398-1.222,8.839-3.661l116.638-116.64l25.797,25.797L122.071,292.2z"/>
</g>
</svg>
