<?xml version="1.0" encoding="utf-8"?>
<!-- Generator: Adobe Illustrator 16.0.0, SVG Export Plug-In . SVG Version: 6.00 Build 0)  -->
<!DOCTYPE svg PUBLIC "-//W3C//DTD SVG 1.1//EN" "http://www.w3.org/Graphics/SVG/1.1/DTD/svg11.dtd">
<svg version="1.1" id="Capa_1" xmlns="http://www.w3.org/2000/svg" xmlns:xlink="http://www.w3.org/1999/xlink" x="0px" y="0px"
	 width="512px" height="512px" viewBox="0 0 512 512" enable-background="new 0 0 512 512" xml:space="preserve">
<g>
	<g>
		<path d="M490.714,94.694L276.313,268.156c-11.418,9.324-30.14,9.324-41.559,0L20.353,94.694C13.05,88.791,0,93.917,0,104.638
			v302.727c0,14.681,12.04,26.721,26.723,26.721h458.555c14.682,0,26.723-12.04,26.723-26.721V104.638
			C511.922,92.675,499.337,87.78,490.714,94.694z"/>
		<path d="M54.299,94.694l181.077,146.43c11.419,9.167,30.14,9.167,41.56,0l180.998-146.43c11.42-9.167,8.778-16.779-5.903-16.779
			H60.204C45.366,77.993,42.88,85.528,54.299,94.694z"/>
	</g>
</g>
</svg>
