<?xml version="1.0" encoding="utf-8"?>
<!-- Generator: Adobe Illustrator 16.0.0, SVG Export Plug-In . SVG Version: 6.00 Build 0)  -->
<!DOCTYPE svg PUBLIC "-//W3C//DTD SVG 1.1//EN" "http://www.w3.org/Graphics/SVG/1.1/DTD/svg11.dtd">
<svg version="1.1" id="Layer_1" xmlns="http://www.w3.org/2000/svg" xmlns:xlink="http://www.w3.org/1999/xlink" x="0px" y="0px"
	 width="46px" height="46px" viewBox="0 0 46 46" enable-background="new 0 0 46 46" xml:space="preserve">
<g>
	<g>
		<path fill="#B1B1B1" d="M35.91,41.346H10.089v-19.37h25.812v19.37H35.91z M14.887,12.776c0-4.474,3.639-8.113,8.113-8.113
			c4.475,0,8.113,3.639,8.113,8.113v5.534H8.257L14.887,12.776z M37.743,18.31h-2.956v-5.534c0-6.505-5.291-11.788-11.787-11.788
			c-6.496,0-11.788,5.283-11.788,11.788h3.675l-6.63,5.534c-1.016,0-1.833,0.818-1.833,1.833v23.036
			c0,1.016,0.817,1.833,1.833,1.833h29.478c1.016,0,1.833-0.817,1.833-1.833V20.143C39.576,19.128,38.75,18.31,37.743,18.31z"/>
		<path fill="#B1B1B1" d="M23,37.734c1.016,0,1.833-0.817,1.833-1.833v-3.297c0-1.016-0.817-1.833-1.833-1.833
			c-1.015,0-1.833,0.817-1.833,1.833v3.297C21.167,36.908,21.985,37.734,23,37.734z"/>
	</g>
</g>
<rect x="4.833" y="12.75" fill="#FFFFFF" width="15.125" height="5.56"/>
</svg>
