<?xml version="1.0" encoding="utf-8"?>
<!-- Generator: Adobe Illustrator 16.0.0, SVG Export Plug-In . SVG Version: 6.00 Build 0)  -->
<!DOCTYPE svg PUBLIC "-//W3C//DTD SVG 1.1//EN" "http://www.w3.org/Graphics/SVG/1.1/DTD/svg11.dtd">
<svg version="1.1" id="Layer_1" xmlns="http://www.w3.org/2000/svg" xmlns:xlink="http://www.w3.org/1999/xlink" x="0px" y="0px"
	 width="46px" height="46px" viewBox="0 0 46 46" enable-background="new 0 0 46 46" xml:space="preserve">
<g>
	<path fill="#766755" d="M35.668,17.558v-4.89C35.668,5.683,29.984,0,23,0c-6.985,0-12.667,5.683-12.667,12.667v4.89
		c-1.809,0.35-3.179,1.943-3.179,3.853v8.743C7.153,38.891,14.262,46,23,46c8.738,0,15.847-7.109,15.847-15.847V21.41
		C38.847,19.501,37.477,17.907,35.668,17.558z M23,1.49c6.163,0,11.178,5.014,11.178,11.177v4.818h-1.689v-4.818
		c0-5.232-4.256-9.488-9.488-9.488c-5.232,0-9.488,4.256-9.488,9.488v4.818h-1.689v-4.818C11.823,6.504,16.837,1.49,23,1.49z
		 M15.002,17.486v-4.818c0-4.41,3.588-7.998,7.998-7.998s7.998,3.588,7.998,7.998v4.818H15.002z M37.356,30.153
		c0,7.916-6.44,14.356-14.356,14.356S8.644,38.069,8.644,30.153V21.41c0-1.342,1.092-2.434,2.434-2.434h23.844
		c1.343,0,2.435,1.092,2.435,2.434V30.153z"/>
	<path fill="#766755" d="M26.924,29.358c0-1.204-0.541-2.325-1.484-3.074c-0.944-0.75-2.173-1.021-3.371-0.742
		c-1.404,0.326-2.532,1.442-2.874,2.843c-0.379,1.548,0.183,3.121,1.408,4.065l-0.583,3.826c-0.068,0.445,0.062,0.896,0.356,1.237
		c0.293,0.34,0.718,0.535,1.166,0.535c0.002,0,0.004,0,0.006,0l2.918-0.011c0.449-0.002,0.873-0.198,1.164-0.539
		c0.292-0.341,0.42-0.79,0.353-1.233l-0.584-3.816C26.35,31.711,26.924,30.568,26.924,29.358z M24.215,31.453
		c-0.265,0.154-0.408,0.453-0.361,0.756l0.654,4.281c0.002,0.006,0.004,0.023-0.011,0.04s-0.031,0.017-0.038,0.017l-2.917,0.012
		c-0.008,0-0.023,0-0.038-0.018c-0.015-0.018-0.013-0.033-0.012-0.04l0.655-4.292c0.046-0.303-0.097-0.603-0.362-0.756
		c-0.96-0.56-1.409-1.625-1.143-2.715c0.207-0.847,0.916-1.547,1.764-1.744c0.202-0.047,0.402-0.07,0.599-0.07
		c0.549,0,1.069,0.18,1.507,0.527c0.585,0.465,0.921,1.16,0.921,1.907C25.434,30.226,24.979,31.008,24.215,31.453z"/>
</g>
</svg>
