<?xml version="1.0" encoding="utf-8"?>
<!-- Generator: Adobe Illustrator 16.0.0, SVG Export Plug-In . SVG Version: 6.00 Build 0)  -->
<!DOCTYPE svg PUBLIC "-//W3C//DTD SVG 1.1//EN" "http://www.w3.org/Graphics/SVG/1.1/DTD/svg11.dtd">
<svg version="1.1" id="Layer_1" xmlns="http://www.w3.org/2000/svg" xmlns:xlink="http://www.w3.org/1999/xlink" x="0px" y="0px"
	 width="51px" height="51px" viewBox="0 0 51 51" enable-background="new 0 0 51 51" xml:space="preserve">
<path fill="#FFFFFF" d="M35.333,21.5c0-4.411-3.589-8-8-8s-8,3.589-8,8c0,2.847,1.499,5.344,3.745,6.762
	c-3.976,1.48-6.97,4.973-7.753,9.238h2.039c1.017-4.57,5.097-8,9.969-8C31.744,29.5,35.333,25.911,35.333,21.5z M27.333,27.5
	c-3.309,0-6-2.691-6-6s2.691-6,6-6s6,2.691,6,6S30.642,27.5,27.333,27.5z M36.333,32.5v-3h-2v3h-3v2h3v3h2v-3h3v-2H36.333z"/>
<circle fill="none" stroke="#FFFFFF" stroke-width="4" stroke-miterlimit="10" cx="25.5" cy="25.5" r="23.438"/>
</svg>
