<?xml version="1.0" encoding="utf-8"?>
<!-- Generator: Adobe Illustrator 16.0.0, SVG Export Plug-In . SVG Version: 6.00 Build 0)  -->
<!DOCTYPE svg PUBLIC "-//W3C//DTD SVG 1.1//EN" "http://www.w3.org/Graphics/SVG/1.1/DTD/svg11.dtd">
<svg version="1.1" id="Capa_1" xmlns="http://www.w3.org/2000/svg" xmlns:xlink="http://www.w3.org/1999/xlink" x="0px" y="0px"
	 width="512px" height="512px" viewBox="0 0 512 512" enable-background="new 0 0 512 512" xml:space="preserve">
<g>
	<g>
		<rect x="160.008" y="383.996" fill="#FFFFFF" width="159.988" height="32.006"/>
		<path fill="#FFFFFF" d="M128.009,32.001h255.989v64h31.995v-64C415.994,14.346,401.682,0,383.998,0H128.009
			c-17.672,0-32.001,14.346-32.001,32.001v64h32.001V32.001z"/>
		<rect x="160.008" y="320" fill="#FFFFFF" width="191.983" height="32.001"/>
		<path fill="#FFFFFF" d="M479.995,128.001H32.009c-17.673,0-32.001,14.341-32.001,31.998v192.002
			c0,17.685,14.329,31.995,32.001,31.995h64v96.003c0,17.689,14.329,32,32.001,32h255.989c17.684,0,31.995-14.311,31.995-32v-96.003
			h64.001c17.686,0,31.996-14.311,31.996-31.995V159.999C511.991,142.342,497.681,128.001,479.995,128.001z M383.998,480H128.009
			V287.998h255.989V480L383.998,480z M447.99,224.002c-17.686,0-31.996-14.313-31.996-32.001c0-17.655,14.311-32.001,31.996-32.001
			c17.69,0,32.005,14.346,32.005,32.001C479.995,209.688,465.68,224.002,447.99,224.002z"/>
	</g>
</g>
</svg>
