<?xml version="1.0" encoding="utf-8"?>
<!-- Generator: Adobe Illustrator 16.0.0, SVG Export Plug-In . SVG Version: 6.00 Build 0)  -->
<!DOCTYPE svg PUBLIC "-//W3C//DTD SVG 1.1//EN" "http://www.w3.org/Graphics/SVG/1.1/DTD/svg11.dtd">
<svg version="1.1" id="Capa_1" xmlns="http://www.w3.org/2000/svg" xmlns:xlink="http://www.w3.org/1999/xlink" x="0px" y="0px"
	 width="46px" height="46px" viewBox="0 0 46 46" enable-background="new 0 0 46 46" xml:space="preserve">
<g>
	<path fill="#766755" d="M46,23.003C46,10.328,35.672,0,22.997,0C10.322,0,0,10.328,0,23.003c0,6.981,3.167,13.261,8.095,17.483
		c0.06,0.059,0.12,0.119,0.234,0.174C12.316,44.006,17.423,46,23.057,46c5.513,0,10.621-1.994,14.609-5.221
		c0.232-0.062,0.413-0.234,0.527-0.413C42.952,36.085,46,29.924,46,23.003z M2.113,23.003c0-11.501,9.388-20.89,20.89-20.89
		c11.501,0,20.89,9.388,20.89,20.89c0,5.634-2.229,10.735-5.867,14.495c-0.588-2.76-2.348-7.454-7.748-10.502
		c1.234-1.527,1.935-3.521,1.935-5.634c0-5.047-4.106-9.154-9.154-9.154s-9.154,4.107-9.154,9.154c0,2.114,0.76,4.048,1.934,5.634
		c-5.449,3.048-7.209,7.742-7.736,10.502C4.4,33.798,2.113,28.637,2.113,23.003z M15.962,21.417c0-3.874,3.167-7.041,7.041-7.041
		s7.041,3.167,7.041,7.041s-3.167,7.041-7.041,7.041S15.962,25.29,15.962,21.417z M9.975,39.313
		c0.12-1.701,1.054-7.453,7.394-10.682c1.586,1.233,3.521,1.936,5.634,1.936c2.113,0,4.106-0.762,5.692-1.994
		c6.281,3.228,7.275,8.861,7.455,10.681c-3.58,2.875-8.154,4.636-13.083,4.636C18.075,43.893,13.555,42.191,9.975,39.313z"/>
</g>
</svg>
