<?xml version="1.0" encoding="utf-8"?>
<!-- Generator: Adobe Illustrator 16.0.0, SVG Export Plug-In . SVG Version: 6.00 Build 0)  -->
<!DOCTYPE svg PUBLIC "-//W3C//DTD SVG 1.1//EN" "http://www.w3.org/Graphics/SVG/1.1/DTD/svg11.dtd">
<svg version="1.1" id="Capa_1" xmlns="http://www.w3.org/2000/svg" xmlns:xlink="http://www.w3.org/1999/xlink" x="0px" y="0px"
	 width="512px" height="512px" viewBox="0 0 512 512" enable-background="new 0 0 512 512" xml:space="preserve">
<g>
	<path fill="#EB5F00" d="M436.285,302.543l-13.242-76.44l-162.049,96.62l-158.925-96.639l-13.205,82.504
		c0.056-0.111,0.186-0.224,0.316-0.354c-1.897,3.162-2.938,6.416-2.938,9.746c0,29.143,122.323,118.9,163.072,118.9
		c40.787,0,189.631-89.738,189.631-118.9C438.945,314.855,437.903,311.787,436.285,302.543z M262.258,305.648L13.224,154.74
		l249.724-79.639L512,153.624L262.258,305.648z M14.935,168.094L0,333.453l14.935,49.584l13.837-49.584L14.935,168.094z"/>
</g>
</svg>
