<?xml version="1.0" encoding="utf-8"?>
<!-- Generator: Adobe Illustrator 16.0.0, SVG Export Plug-In . SVG Version: 6.00 Build 0)  -->
<!DOCTYPE svg PUBLIC "-//W3C//DTD SVG 1.1//EN" "http://www.w3.org/Graphics/SVG/1.1/DTD/svg11.dtd">
<svg version="1.1" id="Capa_1" xmlns="http://www.w3.org/2000/svg" xmlns:xlink="http://www.w3.org/1999/xlink" x="0px" y="0px"
	 width="512px" height="512px" viewBox="0 0 512 512" enable-background="new 0 0 512 512" xml:space="preserve">
<g>
	<g>
		<circle fill="#EB5F00" cx="255.995" cy="277.919" r="53.433"/>
		<path fill="#EB5F00" d="M278.661,334.996h-45.338c-37.721,0-68.41,30.699-68.41,68.414v55.463l0.14,0.861l3.814,1.188
			c35.998,11.25,67.278,15.007,93.027,15.007c50.273,0,79.411-14.343,81.212-15.246l3.57-1.821l0.368,0.011v-55.468
			C347.071,365.695,316.393,334.996,278.661,334.996z"/>
		<circle fill="#EB5F00" cx="146.917" cy="122.274" r="86.198"/>
		<path fill="#EB5F00" d="M365.062,208.472c47.606,0,86.188-38.607,86.188-86.208c0-47.585-38.598-86.188-86.188-86.188
			c-47.616,0-86.192,38.592-86.192,86.188C278.869,169.859,317.445,208.472,365.062,208.472z"/>
		<path fill="#EB5F00" d="M214.097,326.589c-13.684-11.8-22.386-29.226-22.386-48.665c0-23.839,13.071-44.647,32.396-55.747
			c-12.584-5.008-26.263-7.841-40.611-7.841h-73.142C49.505,214.331,0,263.856,0,324.695v89.467l0.223,1.396l6.16,1.914
			c56.988,17.81,106.597,23.938,147.675,24.161v-38.229C154.058,366.334,179.667,335.219,214.097,326.589z"/>
		<path fill="#EB5F00" d="M401.636,214.331h-73.132c-14.349,0-28.012,2.833-40.601,7.841c19.34,11.1,32.412,31.898,32.412,55.749
			c0,19.428-8.708,36.854-22.382,48.653c13.783,3.431,26.471,10.482,36.782,20.799c14.986,14.997,23.242,34.902,23.237,56.043
			v38.219c41.077-0.223,90.691-6.356,147.669-24.161l6.16-1.914l0.229-1.396v-89.467
			C511.989,263.856,462.484,214.331,401.636,214.331z"/>
	</g>
</g>
</svg>
