<?xml version="1.0" encoding="utf-8"?>
<!-- Generator: Adobe Illustrator 16.0.0, SVG Export Plug-In . SVG Version: 6.00 Build 0)  -->
<!DOCTYPE svg PUBLIC "-//W3C//DTD SVG 1.1//EN" "http://www.w3.org/Graphics/SVG/1.1/DTD/svg11.dtd">
<svg version="1.1" id="Capa_1" xmlns="http://www.w3.org/2000/svg" xmlns:xlink="http://www.w3.org/1999/xlink" x="0px" y="0px"
	 width="512px" height="512px" viewBox="0 0 512 512" enable-background="new 0 0 512 512" xml:space="preserve">
<g>
	<path fill="#EB5F00" d="M503.888,54.077H8.112C3.633,54.077,0,57.708,0,62.188v387.623c0,4.481,3.633,8.112,8.112,8.112h495.776
		c4.483,0,8.112-3.631,8.112-8.112V62.188C512,57.708,508.371,54.077,503.888,54.077z M463.328,393.25L351.761,277.711
		c-1.232-1.273-3.249-1.355-4.58-0.185l-77.38,68.106l-98.906-121.779c-0.643-0.795-1.582-1.249-2.645-1.227
		c-1.024,0.021-1.979,0.513-2.591,1.334L48.672,380.938V102.749h414.656V393.25L463.328,393.25z"/>
	<path fill="#EB5F00" d="M340.802,219.926c21.964,0,39.796-17.817,39.796-39.799c0-21.976-17.832-39.803-39.796-39.803
		c-21.982,0-39.794,17.827-39.794,39.803C301.008,202.107,318.821,219.926,340.802,219.926z"/>
</g>
</svg>
