<?xml version="1.0" encoding="utf-8"?>
<!-- Generator: Adobe Illustrator 16.0.0, SVG Export Plug-In . SVG Version: 6.00 Build 0)  -->
<!DOCTYPE svg PUBLIC "-//W3C//DTD SVG 1.1//EN" "http://www.w3.org/Graphics/SVG/1.1/DTD/svg11.dtd">
<svg version="1.1" id="Capa_1" xmlns="http://www.w3.org/2000/svg" xmlns:xlink="http://www.w3.org/1999/xlink" x="0px" y="0px"
	 width="512px" height="512px" viewBox="0 0 512 512" enable-background="new 0 0 512 512" xml:space="preserve">
<g>
	<g>
		<circle fill="#EB5F00" cx="256.006" cy="108.807" r="108.807"/>
		<path fill="#EB5F00" d="M302.152,225.021h-92.318c-76.798,0-139.293,62.489-139.293,139.3v112.928l0.284,1.763l7.786,2.434
			c73.296,22.896,136.986,30.55,189.408,30.55c102.374,0,161.723-29.204,165.4-31.056l7.269-3.69h0.765V364.32
			C441.459,287.51,378.976,225.021,302.152,225.021z M277.5,444.17l-19,22.496c-3.413-5.49-1.621,7.289-2.096,7.289
			c-0.013,0-0.047,0.009-0.038,0C291.5,439.5,296.76,411.411,296.5,411L245,396.5c-0.158-0.246-8.547,47.083-8.534,46.767L338.5,354
			c0.051-0.752-80.758-30.5-80-30.5V312c0.752,0-22.063,11.748-22,12.5l41.233,118.754
			C277.771,443.589,277.677,443.898,277.5,444.17z M268.488,296.08L304,250.5l-78.196,4.552c0-3.938-6.242,23.948-2.304,23.948
			l49-12c3.925,0,15.206-15.885,15.206-11.948L268.488,296.08z"/>
	</g>
</g>
</svg>
