<?xml version="1.0" encoding="utf-8"?>
<!-- Generator: Adobe Illustrator 16.0.0, SVG Export Plug-In . SVG Version: 6.00 Build 0)  -->
<!DOCTYPE svg PUBLIC "-//W3C//DTD SVG 1.1//EN" "http://www.w3.org/Graphics/SVG/1.1/DTD/svg11.dtd">
<svg version="1.1" id="Layer_1" xmlns="http://www.w3.org/2000/svg" xmlns:xlink="http://www.w3.org/1999/xlink" x="0px" y="0px"
	 width="12.357px" height="10.723px" viewBox="0 0 12.357 10.723" enable-background="new 0 0 12.357 10.723" xml:space="preserve">
<path fill="#FFFFFF" d="M0.344,5.778c-0.094-0.095-0.14-0.234-0.14-0.326c0-0.094,0.046-0.232,0.14-0.326l0.65-0.652
	c0.187-0.186,0.466-0.186,0.651,0L1.693,4.52l2.559,2.746c0.092,0.094,0.232,0.094,0.325,0L10.811,0.8h0.046l0,0
	c0.188-0.187,0.466-0.187,0.651,0l0.652,0.651c0.186,0.187,0.186,0.465,0,0.652l0,0L4.716,9.825c-0.093,0.092-0.186,0.14-0.325,0.14
	c-0.14,0-0.232-0.048-0.326-0.14L0.437,5.918L0.344,5.778L0.344,5.778z"/>
</svg>
